# xmcd
#
# Track frame offsets: 
#        150
#        15650
#        29731
#        47636
#        62363
#        76156
#        87119
#        101788
#        126555
#        139879
#        155056
#        176277
#        193576
#        209081
#        223284
#        232802
#        259379
#        276199
#        310913
#
# Disc length: 4440 seconds
#
# Revision: 1
# Processed by: cddbd v1.5.2PL0 Copyright (c) Steve Scherf et al.
# Submitted via: ExactAudioCopy v0.95b4
#
DISCID=1a115613
DTITLE=Various Artist - Legends II [CD2]
DYEAR=2003
DGENRE=Rock
TTITLE0=John Lennon - Woman
TTITLE1=Crowded House - Better Be Home Soon
TTITLE2=Procol Harum - A Whiter Shade Of Pale
TTITLE3=America - Sister Golden Hair
TTITLE4=Van Morrison - Brown Eyed Girl
TTITLE5=The Beach Boys - Wouldn't It Be Nice
TTITLE6=The Animals - We Gotta Get Out Of This Place
TTITLE7=Phil Collins - In The Air Tonight
TTITLE8=The Monkees - Daydream Believer
TTITLE9=Men At Work - Who Can It Be Now
TTITLE10=Blondie - The Tide Is High
TTITLE11=Electric Light Orchestra - Sweet Talkin Woman
TTITLE12=Stealer's Wheel - Stuck In The Middle With You
TTITLE13=Australian Crawl - Downhearted
TTITLE14=Bill Waithers - Ain't No Sunshine
TTITLE15=10CC - I'm Not In Love
TTITLE16=The Righteous Brothers - You've Lost That Lovin' Feelin'
TTITLE17=Joe Cocker - With A Little Help From My Friends
TTITLE18=WARNING DO NOT INSTALL - EMI COPY PROTECTION SOFTWARE
EXTD=
EXTT0=
EXTT1=
EXTT2=
EXTT3=
EXTT4=
EXTT5=
EXTT6=
EXTT7=
EXTT8=
EXTT9=
EXTT10=
EXTT11=
EXTT12=
EXTT13=
EXTT14=
EXTT15=
EXTT16=
EXTT17=
EXTT18=
PLAYORDER=
